<svg xmlns="http://www.w3.org/2000/svg" width="256" height="256" viewBox="0 0 100 100"><rect width="100" height="100" rx="20" fill="#6d1a8d"></rect><path d="M48.15 33.17L48.15 33.17Q48.15 34.17 47.55 34.88Q46.95 35.59 46.17 35.94L46.17 35.94Q44.32 34.66 41.84 33.53Q39.35 32.39 35.37 32.39L35.37 32.39Q32.11 32.39 29.34 33.53Q26.57 34.66 24.51 36.87Q22.45 39.07 21.28 42.40Q20.11 45.74 20.11 50.07L20.11 50.07Q20.11 54.47 21.24 57.74Q22.38 61.01 24.40 63.21Q26.43 65.41 29.27 66.51Q32.11 67.61 35.59 67.61L35.59 67.61Q39.28 67.61 42.01 66.58Q44.75 65.55 46.59 64.13L46.59 64.13Q47.30 64.41 47.94 65.16Q48.58 65.90 48.58 66.90L48.58 66.90Q48.58 68.39 46.88 69.60L46.88 69.60Q45.24 70.73 42.40 71.62Q39.56 72.51 35.16 72.51L35.16 72.51Q30.69 72.51 26.85 71.09Q23.02 69.67 20.22 66.86Q17.41 64.06 15.78 59.87Q14.14 55.68 14.14 50.07L14.14 50.07Q14.14 44.46 15.81 40.24Q17.48 36.01 20.32 33.17Q23.16 30.33 26.96 28.91Q30.76 27.49 34.95 27.49L34.95 27.49Q37.86 27.49 40.31 27.99Q42.76 28.49 44.50 29.30Q46.24 30.12 47.20 31.15Q48.15 32.18 48.15 33.17ZM70.31 67.68L70.31 67.68Q75.06 67.68 77.51 65.51Q79.96 63.35 79.96 59.94L79.96 59.94Q79.96 56.96 78.08 55.11Q76.20 53.27 72.15 52.06L72.15 52.06L65.97 50.21Q61.43 48.86 58.84 46.24Q56.25 43.61 56.25 39.14L56.25 39.14Q56.25 36.44 57.28 34.27Q58.31 32.11 60.22 30.62Q62.14 29.13 64.80 28.31Q67.47 27.49 70.80 27.49L70.80 27.49Q73.64 27.49 76.09 27.95Q78.54 28.42 80.35 29.23Q82.16 30.05 83.16 31.04Q84.15 32.04 84.15 33.10L84.15 33.10Q84.15 34.10 83.65 34.81Q83.16 35.52 82.38 35.94L82.38 35.94Q80.53 34.52 77.58 33.46Q74.64 32.39 71.02 32.39L71.02 32.39Q66.83 32.39 64.45 34.17Q62.07 35.94 62.07 39.14L62.07 39.14Q62.07 41.62 63.77 43.18Q65.48 44.75 69.45 45.88L69.45 45.88L73.78 47.16Q79.39 48.79 82.62 51.74Q85.86 54.69 85.86 59.94L85.86 59.94Q85.86 65.55 81.81 69.03Q77.76 72.51 70.31 72.51L70.31 72.51Q67.04 72.51 64.38 71.94Q61.71 71.37 59.83 70.45Q57.95 69.53 56.92 68.42Q55.89 67.32 55.89 66.26L55.89 66.26Q55.89 65.05 56.64 64.24Q57.38 63.42 58.38 63.06L58.38 63.06Q59.16 63.84 60.30 64.66Q61.43 65.48 62.92 66.15Q64.41 66.83 66.26 67.25Q68.11 67.68 70.31 67.68Z" fill="#fff"></path></svg>